<svg width="157" height="54" viewBox="0 0 157 54" fill="none" xmlns="http://www.w3.org/2000/svg">
<g clip-path="url(#clip0_30_8638)">
<path d="M31.484 33.9808C30.9294 33.7119 30.2929 33.6654 29.7051 33.8508C29.1172 34.0362 28.6226 34.4396 28.3227 34.9781C28.0834 35.367 27.844 35.746 27.5947 36.1149C27.167 36.7557 26.7077 37.3748 26.2185 37.9699C25.6954 38.6031 25.0389 39.113 24.2958 39.463C23.5528 39.8131 22.7416 39.9945 21.9202 39.9945C21.0989 39.9945 20.2877 39.8131 19.5446 39.463C18.8016 39.113 18.1451 38.6031 17.622 37.9699C17.1433 37.3715 16.6846 36.7432 16.2458 36.095C14.0037 32.644 12.4557 28.7892 11.6883 24.7461C11.233 22.5304 10.9463 20.2835 10.8306 18.0245C10.7545 16.5746 11.1961 15.1449 12.0766 13.9904C12.957 12.8359 14.2191 12.0319 15.6374 11.7218H15.7172C17.7694 11.2894 19.8485 10.9962 21.9402 10.8442C24.0316 10.9933 26.1107 11.2832 28.1631 11.7118H28.2329C29.6494 12.0263 30.9082 12.8335 31.7849 13.9897C32.6616 15.1458 33.0992 16.5757 33.0198 18.0245C33.0198 18.4633 33.0198 18.9121 32.9301 19.3808C32.9 19.6995 32.9336 20.021 33.029 20.3266C33.1244 20.6322 33.2796 20.9158 33.4857 21.1608C33.6917 21.4059 33.9445 21.6074 34.2292 21.7538C34.5139 21.9002 34.8249 21.9885 35.144 22.0136L41.0478 22.4823C41.365 22.5096 41.6844 22.4739 41.9877 22.3772C42.291 22.2806 42.5722 22.1249 42.815 21.9191C43.0579 21.7133 43.2576 21.4615 43.4028 21.1782C43.5479 20.8949 43.6356 20.5857 43.6607 20.2684C43.9416 16.7958 43.9182 13.3054 43.5909 9.83692C43.5093 9.0241 43.2661 8.23577 42.8756 7.51821C42.4852 6.80066 41.9553 6.16833 41.3171 5.65836C35.7723 1.28036 25.67 0.303032 22.738 0.0736602C22.1969 0.033786 21.6536 0.033786 21.1125 0.0736602C18.1905 0.303032 8.07815 1.28036 2.53334 5.64839C1.8949 6.15733 1.36544 6.78958 0.976516 7.50746C0.587591 8.22535 0.347155 9.01418 0.269537 9.82695C-0.458469 17.1868 -1.12664 41.3107 19.1578 53.1782C19.9979 53.6679 20.9528 53.926 21.9252 53.926C22.8976 53.926 23.8526 53.6679 24.6926 53.1782C30.1506 50.0206 34.6832 45.4846 37.8366 40.0242C38.1594 39.4672 38.2483 38.805 38.0838 38.1825C37.9193 37.5601 37.5149 37.0282 36.959 36.7033L36.8095 36.6236L31.484 33.9808Z" fill="#FFC247"/>
<path d="M95.8867 44.532C89.7934 44.532 85.4253 40.2437 85.4253 33.8413C85.3814 32.4892 85.6048 31.1418 86.0826 29.8763C86.5603 28.6107 87.2831 27.4519 88.2096 26.4661C89.136 25.4804 90.2478 24.6872 91.4814 24.1319C92.7149 23.5767 94.0459 23.2703 95.398 23.2303H96.0562C102.538 23.2303 106.159 27.8975 106.159 34.3499C106.159 34.5792 106.159 35.048 106.159 35.5466H91.1995C91.3254 36.727 91.8845 37.8188 92.7686 38.6109C93.6528 39.403 94.7993 39.8391 95.9864 39.8348C96.7382 39.8984 97.4935 39.7643 98.1775 39.446C98.8615 39.1276 99.4503 38.636 99.8857 38.0198H105.869C104.633 41.7995 101.082 44.5419 95.9465 44.5419M100.494 31.8467C100.43 30.6995 99.9252 29.6214 99.0854 28.8373C98.2455 28.0531 97.1353 27.6236 95.9864 27.6382C94.8067 27.6139 93.6608 28.0326 92.7746 28.8117C91.8885 29.5908 91.3265 30.6736 91.1995 31.8467H100.494Z" fill="#02033B"/>
<path d="M113.808 27.0499C114.965 24.5866 117.278 23.6193 119.901 23.5395V29.1342C118.845 29.085 117.789 29.2028 116.77 29.4832C115.344 29.9419 113.997 30.9093 113.997 35.1577V43.8439H108.014V23.8985H113.798L113.808 27.0499Z" fill="#02033B"/>
<path d="M133.285 39.1068H134.481L136.536 43.814H131.639C125.975 43.9336 124.818 40.5329 124.818 35.9056V29.1441H121.457V24.0082H124.818V19.5205L130.642 16.9376V24.0082H134.731V29.184H130.642V34.9383C130.642 37.6409 130.752 39.1368 133.265 39.1368" fill="#02033B"/>
<path d="M135.549 33.8413C135.549 27.0499 140.635 23.2702 146.309 23.2702C151.984 23.2702 157 27.0499 157 33.8413C157 40.6327 151.944 44.4921 146.309 44.4921C140.675 44.4921 135.549 40.6726 135.549 33.8413ZM146.309 39.8249C149.361 39.8249 151.296 37.1223 151.296 33.8413C151.296 30.5603 149.371 27.8577 146.309 27.8577C143.248 27.8577 141.323 30.5603 141.323 33.8413C141.323 37.1223 143.258 39.8249 146.309 39.8249Z" fill="#02033B"/>
<path d="M70.9461 44.532C63.0378 44.532 56.9844 39.0869 56.9844 30.291C57.0143 21.6546 63.1076 16.03 71.0558 16.03C77.9569 16.03 82.4746 19.4208 84.2098 25.524H78.1165C76.7303 22.4325 74.1274 21.2757 71.0558 21.2757C66.6978 21.2757 63.1874 24.9057 63.1874 30.3408C63.1874 35.776 66.7377 39.3163 71.0558 39.3163C74.8754 39.3163 76.9597 37.8503 78.0367 35.1178H84.0901C82.5543 41.2111 77.6478 44.5619 70.8963 44.5619" fill="#02033B"/>
</g>
<defs>
<clipPath id="clip0_30_8638">
<rect width="157" height="53.8525" fill="white" transform="translate(0 0.0737457)"/>
</clipPath>
</defs>
</svg>
